<svg xmlns="http://www.w3.org/2000/svg" version="1.1" viewBox="10.603603603603608 4.697999999999994 97.7117117117117 108.86400000000002" width="97.7117117117117" height="108.86400000000002">
 <path d="m22.039 31.039c0-4.2461 3.3945-7.6914 7.5781-7.6914h16.809c0.83594 0 1.5156 0.6875 1.5156 1.5391 0 0.85156-0.67969 1.5391-1.5156 1.5391h-16.809c-2.5117 0-4.5469 2.0664-4.5469 4.6133v54.793c0 3.5586 3.8008 5.7773 6.832 3.9883l14.684-8.6758c2.3008-1.3594 5.1367-1.3906 7.4688-0.085937l16.23 9.0898c3.0273 1.6992 6.7422-0.52734 6.7422-4.0391v-19.719c0-0.84766 0.67578-1.5352 1.5117-1.5352 0.83984 0 1.5156 0.6875 1.5156 1.5352v19.719c0 5.8555-6.1836 9.5625-11.234 6.7344l-16.23-9.0898c-1.3984-0.78516-3.0977-0.76562-4.4805 0.050782l-14.684 8.6758c-5.0508 2.9844-11.387-0.71484-11.387-6.6484z" fill-rule="evenodd"></path>
 <path d="m76.957 28.082c0.10547 0.53516 0.49219 1 1.0469 1.1719 0.14844 0.042969 0.29688 0.066406 0.44531 0.066406 0.14844 0 0.30078-0.023437 0.44922-0.066406 0.55078-0.17188 0.9375-0.63672 1.0469-1.1719 0.16797-0.42578 0.57422-1.0625 1.2695-1.7891 0.75391-0.78516 1.7461-1.5625 2.8477-2.1523 2.2422-1.1992 4.6055-1.4727 6.5156-0.10156 1.7891 1.2852 2.6367 2.7734 2.8477 4.3828 0.21875 1.6641-0.21875 3.6641-1.3984 5.9492-2.2695 4.3906-7.0469 9.3789-13.559 14.141-6.0156-4.5742-10.805-9.5547-13.207-14.012-1.2578-2.332-1.7852-4.3828-1.6367-6.0859 0.14453-1.6289 0.92578-3.1133 2.6875-4.375 1.9141-1.3711 4.2773-1.0977 6.5234 0.10156 1.1016 0.58984 2.0938 1.3672 2.8477 2.1523 0.69531 0.72656 1.1055 1.3672 1.2734 1.7891zm1.4922-3.2695c-0.1875-0.23047-0.39062-0.45312-0.59766-0.66797-0.96484-1.0078-2.2109-1.9805-3.6055-2.7266-2.7578-1.4727-6.4531-2.2031-9.6797 0.10938-2.418 1.7305-3.7266 4-3.957 6.6094-0.22656 2.5391 0.57812 5.2148 1.9961 7.8398 2.8047 5.207 8.293 10.734 14.816 15.578 0.28516 0.26562 0.65625 0.40234 1.0312 0.40234 0.36328 0 0.72266-0.13281 1.0039-0.38281 7.0664-5.0469 12.574-10.59 15.254-15.773 1.3516-2.6211 2.0469-5.2773 1.7188-7.7852-0.33594-2.5664-1.7148-4.7773-4.1055-6.4883-3.2227-2.3125-6.918-1.582-9.6719-0.10938-1.3984 0.74609-2.6406 1.7227-3.6055 2.7266-0.20703 0.21484-0.40625 0.44141-0.59766 0.66797z" fill-rule="evenodd"></path>
<text x="0.0" y="117.5" font-size="5.0" font-weight="bold" font-family="Arbeit Regular, Helvetica, Arial-Unicode, Arial, Sans-serif" fill="#000000">Created by Dmitry Podluzny</text><text x="0.0" y="122.5" font-size="5.0" font-weight="bold" font-family="Arbeit Regular, Helvetica, Arial-Unicode, Arial, Sans-serif" fill="#000000">from Noun Project</text></svg>