<svg viewBox="0.1351351351351351 -7.3 101.08108108108108 114.21" version="1.1" xmlns="http://www.w3.org/2000/svg" style="max-height: 500px" width="101.08108108108108" height="114.21">
 <path d="m76.93 55.148c-3.8125-3.8086-8.9844-5.9531-14.375-5.9531-5.3906 0-10.559 2.1445-14.371 5.9531-3.8125 3.8125-5.9531 8.9844-5.9531 14.375 0 5.3906 2.1406 10.562 5.9531 14.375 3.8125 3.8086 8.9805 5.9531 14.371 5.9531 5.3906 0 10.562-2.1406 14.375-5.9531s5.9531-8.9844 5.9531-14.375c0-5.3906-2.1406-10.562-5.9531-14.375zm-33.949 25.625c-1.7734-3.0703-2.793-6.5195-2.9688-10.062-0.007813-0.085938-0.078125-0.14844-0.16406-0.14844h-22.57c-0.085938 0-0.16016 0.070312-0.16016 0.15625v10.137c0 0.089843 0.074218 0.16016 0.16016 0.16016h25.562c0.12109 0 0.19922-0.13281 0.14062-0.24219zm19.434-20.074-5.3359 8.7422c-0.03125 0.050782-0.03125 0.11719 0 0.16797l5.3359 8.7344c0.0625 0.10547 0.21484 0.10547 0.27734 0l5.3359-8.7344c0.03125-0.050781 0.03125-0.11719 0-0.16797l-5.3359-8.7422c-0.0625-0.10156-0.21094-0.10156-0.27734 0zm-7.3828 9.8555c-0.39453-0.63281-0.39453-1.4375 0-2.0664l5.8242-9.5352h0.003906c0.35547-0.59375 1-0.95703 1.6953-0.95703 0.69141 0 1.3359 0.36328 1.6953 0.95703l5.8242 9.5352c0.39453 0.62891 0.39453 1.4336 0 2.0664l-5.8242 9.5469c-0.36328 0.58984-1.0039 0.94922-1.6953 0.94922-0.69531 0-1.3359-0.35938-1.6953-0.94922zm18.109-11.621c-2.8047-2.8086-6.6133-4.3867-10.586-4.3867-3.9688 0-7.7773 1.5781-10.586 4.3867s-4.3867 6.6172-4.3867 10.586c0 3.9727 1.5781 7.7812 4.3867 10.586 2.8086 2.8086 6.6172 4.3867 10.586 4.3867 3.9727 0 7.7812-1.5781 10.586-4.3867 2.8086-2.8086 4.3828-6.6133 4.3828-10.586 0-3.9688-1.5742-7.7773-4.3828-10.586zm-10.586-6.6289c4.5664 0 8.9492 1.8164 12.176 5.0469 3.2305 3.2305 5.043 7.6094 5.043 12.176s-1.8164 8.9492-5.0469 12.176c-3.2266 3.2305-7.6094 5.043-12.176 5.043-4.5664 0-8.9492-1.8164-12.176-5.0469-3.2305-3.2266-5.043-7.6094-5.043-12.176 0-4.5664 1.8164-8.9492 5.0469-12.176 3.2266-3.2305 7.6094-5.043 12.176-5.043zm-45.277 16.008h22.578c0.085937 0 0.15625-0.066406 0.16406-0.15234 0.20703-3.5469 1.2578-6.9961 3.0586-10.059 0.066406-0.10937-0.011719-0.24609-0.13672-0.24609h-25.664c-0.089844 0-0.16016 0.074219-0.16016 0.16406v10.133c0 0.089844 0.070312 0.16016 0.16016 0.16016zm29.844-15.266c3.4531-3.2383 7.8359-5.3086 12.531-5.9141 0.066406-0.007812 0.12109-0.058593 0.13672-0.125l0.35547-1.6836c0.015625-0.089844-0.042969-0.17188-0.12891-0.19141l-39.48-8.2734v-0.003906c-0.085937-0.015625-0.17188 0.039062-0.19141 0.125l-2.0781 9.9258c-0.019531 0.089844 0.039063 0.17188 0.125 0.19141l28.59 5.9883v0.003906c0.050781 0.007812 0.10156-0.007813 0.14062-0.042969zm-17.578-36.234-1.043-2.4492c-0.050781-0.14062-0.25-0.14062-0.30078 0l-0.94141 2.2812c-0.10156 0.28906-0.32422 0.52344-0.60937 0.64062l-2.4492 1.043c-0.13281 0.054687-0.13281 0.24219 0 0.30078l2.2852 0.9375c0.28906 0.10938 0.51953 0.33203 0.64062 0.61328l1.043 2.4492c0.050781 0.14062 0.25 0.14062 0.30078 0l0.9375-2.2812c0.10547-0.28906 0.32812-0.52344 0.61328-0.64062l2.4492-1.0469c0.14062-0.050781 0.14062-0.25 0-0.30078l-2.2812-0.9375h0.003906c-0.28906-0.10938-0.52344-0.33203-0.64453-0.61328zm7.1094 1.0508c0.1875 0.27734 0.24219 0.625 0.14844 0.94531-0.09375 0.32031-0.32812 0.58594-0.63672 0.71484l-4.7891 2.0391h0.003906c-0.039062 0.019531-0.070312 0.046875-0.089844 0.085938l-1.5781 3.8359v0.003906c-0.011719 0.03125-0.015626 0.066407-0.007813 0.097657l0.98828 4.0938c0.019532 0.089843 0.10938 0.14062 0.19922 0.11719l39.211-9.4727c0.085938-0.015625 0.13672-0.10156 0.11719-0.1875l-2.3828-9.8633h0.003906c-0.023438-0.089844-0.11328-0.14063-0.20312-0.12109l-30.895 7.4648c-0.10547 0.027343-0.15625 0.15625-0.089844 0.24609zm35.074 17.836-1.0742-2.5273v0.003906c-0.035156-0.089843-0.11719-0.14453-0.21094-0.14453s-0.17578 0.054688-0.21094 0.14453l-0.94531 2.293h-0.003906c-0.14844 0.41797-0.46875 0.75391-0.87891 0.92969l-2.5273 1.0703h0.003906c-0.085937 0.035156-0.14453 0.11719-0.14453 0.21094s0.058594 0.17969 0.14453 0.21484l2.3008 0.94141c0.41406 0.15234 0.75 0.47266 0.92187 0.87891l1.0742 2.5273c0.035157 0.085937 0.12109 0.14062 0.21094 0.14062 0.09375 0 0.17578-0.054687 0.21484-0.14062l0.94531-2.3008c0.14844-0.41797 0.46875-0.75391 0.87891-0.92578l2.5273-1.0742h-0.003906c0.085937-0.035156 0.14062-0.11719 0.14062-0.21094s-0.054688-0.17578-0.14062-0.21094l-2.3008-0.94531 0.003906-0.003907c-0.41797-0.14844-0.75391-0.46875-0.92578-0.875z"/>
<text fill="#000000" font-family="Arbeit Regular, Helvetica, Arial-Unicode, Arial, Sans-serif" font-weight="bold" font-size="5.0" y="117.5" x="0.0">Created by HRF07</text><text fill="#000000" font-family="Arbeit Regular, Helvetica, Arial-Unicode, Arial, Sans-serif" font-weight="bold" font-size="5.0" y="122.5" x="0.0">from Noun Project</text></svg>