<svg viewBox="0.1351351351351351 -7.3 101.08108108108108 114.21" version="1.1" xmlns="http://www.w3.org/2000/svg" style="max-height: 500px" width="101.08108108108108" height="114.21">
 <path d="m61.895 47.23c7.3828 0 14.242 3.8086 18.145 10.078 3.9062 6.2656 4.3008 14.102 1.0469 20.727-3.2578 6.6289-9.6992 11.109-17.043 11.852-7.3477 0.74219-14.555-2.3594-19.07-8.1992-0.027344-0.039062-0.074218-0.0625-0.12109-0.058594h-27.059c-0.58594 0-1.0625-0.48047-1.0625-1.0664v-24.07c0-0.58594 0.47656-1.0625 1.0625-1.0625h27.188c0.10156 0 0.62891-0.53516 0.28125-0.60938l-26.82-5.6211c-0.57422-0.12109-0.94141-0.67969-0.82422-1.2539l2.4688-11.777c0.058593-0.27344 0.22266-0.51562 0.45703-0.67188 0.23438-0.15234 0.52344-0.20703 0.79688-0.15234l39.773 8.332v0.003907c0.57422 0.12109 0.94141 0.68359 0.82422 1.2578l-0.44531 2.1133c-0.046876 0.23438 0.26953 0.17969 0.39844 0.17969zm10.074-11.367c0.011719 0.035157 0.042969 0.066407 0.082031 0.082031l3.7734 1.5547c0.39453 0.16406 0.65625 0.54688 0.65625 0.97266 0.003906 0.42969-0.25 0.81641-0.64062 0.98438l-3.8828 1.6523h-0.003906c-0.035156 0.015625-0.0625 0.042969-0.074219 0.082031l-1.5586 3.7812v-0.003906c-0.16406 0.39453-0.55078 0.65234-0.97656 0.65234-0.42578 0.003906-0.8125-0.24609-0.98438-0.63672l-1.6484-3.8828c-0.015626-0.039062-0.046876-0.070312-0.082032-0.082031l-3.7812-1.5547v-0.003906c-0.39453-0.16406-0.65234-0.54688-0.65234-0.97656-0.003906-0.42578 0.25-0.8125 0.64453-0.98047l3.8789-1.6523v0.003907c0.035156-0.015625 0.066406-0.046875 0.082031-0.082031l1.5586-3.7812h-0.003906c0.16406-0.39453 0.54688-0.65234 0.97656-0.65234 0.42578-0.003906 0.8125 0.24609 0.98047 0.63672zm-1.7617 1.2891-0.71094-1.6719h-0.003906c-0.050782-0.12891-0.22656-0.12891-0.27734 0l-0.625 1.5273v-0.003906c-0.10156 0.27344-0.3125 0.49609-0.58203 0.60938l-1.6719 0.71094c-0.125 0.050781-0.125 0.22656 0 0.28125l1.5234 0.625h-0.003906c0.27734 0.10156 0.49609 0.3125 0.61328 0.58203l0.70703 1.6719c0.054688 0.125 0.23047 0.125 0.28516 0l0.625-1.5273c0.10156-0.27344 0.3125-0.49219 0.58203-0.60547l1.668-0.71094c0.125-0.054687 0.125-0.23047 0-0.28125l-1.5234-0.625c-0.27344-0.10156-0.49609-0.3125-0.61328-0.58203zm-37.82-19.754c0.015625 0.039062 0.042969 0.066406 0.082031 0.078124l1.4648 0.60156c0.027344 0.015625 0.0625 0.015625 0.09375 0.007813l33.363-8.0508c0.56641-0.13672 1.1406 0.21094 1.2812 0.78125l2.8281 11.699h-0.003906c0.13672 0.57031-0.21094 1.1445-0.78125 1.2812l-39.5 9.543c-0.57031 0.13672-1.1445-0.21484-1.2812-0.78516l-1.0508-4.3477c-0.03125-0.125-0.22266-0.14062-0.37891-0.50781l-1.9297-4.5352-0.003907 0.003907c-0.011718-0.039063-0.042968-0.070313-0.082031-0.082031l-4.4141-1.8164c-0.39453-0.16406-0.65234-0.54688-0.65625-0.97656-0.003907-0.42578 0.25-0.81641 0.64453-0.98438l4.5391-1.9297c0.035157-0.015625 0.0625-0.046875 0.078126-0.082031l1.8203-4.418c0.16406-0.39453 0.55078-0.65234 0.97656-0.65234 0.42578-0.003906 0.8125 0.25 0.98047 0.64063zm4.9766 2.2812h-0.003906c0.17969 0.26562 0.23047 0.59375 0.14062 0.89844s-0.30859 0.55078-0.60156 0.67578l-4.5352 1.9336c-0.035156 0.015625-0.066406 0.042969-0.082031 0.078125l-1.5 3.6328v0.003906c-0.011719 0.027344-0.015625 0.0625-0.007812 0.09375l0.93359 3.875h0.003907c0.019531 0.082031 0.10156 0.13281 0.18359 0.11328l37.137-8.9727c0.082031-0.019531 0.13281-0.10156 0.11328-0.18359l-2.2539-9.3398c-0.023437-0.078125-0.10547-0.12891-0.1875-0.10938l-29.262 7.0703c-0.10156 0.023437-0.14844 0.14453-0.085937 0.23047zm-6.7344-1-0.98828-2.3242c-0.054687-0.12109-0.22656-0.12109-0.28125 0l-0.89062 2.1602h0.003906c-0.10156 0.27344-0.3125 0.49609-0.58203 0.60938l-2.3242 0.98828c-0.125 0.050781-0.125 0.22656 0 0.27734l2.1602 0.89062v0.003906c0.27344 0.097656 0.49609 0.30859 0.61328 0.57812l0.98828 2.3242-0.003906-0.003906c0.050781 0.12891 0.23047 0.12891 0.28125 0l0.88672-2.1602v0.003906c0.10547-0.27734 0.3125-0.49609 0.58203-0.61328l2.3242-0.98828c0.125-0.050781 0.125-0.23047 0-0.28125l-2.1562-0.88672c-0.27344-0.10156-0.49609-0.3125-0.60938-0.58203zm16.648 34.328c3.2656-3.0703 7.418-5.0273 11.867-5.6016 0.0625-0.007812 0.11719-0.054688 0.12891-0.12109l0.33594-1.6016v0.003906c0.015625-0.082031-0.039063-0.16406-0.12109-0.17969l-37.387-7.8359c-0.082031-0.015625-0.16406 0.035156-0.18359 0.11719l-1.9688 9.3984c-0.015625 0.085938 0.035156 0.16406 0.12109 0.18359l27.078 5.6719h-0.003907c0.050781 0.007812 0.097657-0.003907 0.13672-0.039063zm-28.27 14.457h21.391c0.082031 0 0.14844-0.0625 0.15625-0.14062 0.19922-3.3633 1.1914-6.6328 2.9023-9.5352 0.058594-0.10156-0.015625-0.23047-0.13281-0.23047h-24.316c-0.082031 0.003906-0.14844 0.070312-0.14844 0.15625v9.6016-0.003906c0 0.085938 0.066406 0.15234 0.14844 0.15234zm42.887-15.164c4.3242 0 8.4727 1.7188 11.527 4.7773 3.0586 3.0586 4.7773 7.207 4.7734 11.531 0 4.3242-1.7188 8.4727-4.7734 11.531-3.0586 3.0586-7.207 4.7734-11.531 4.7734-4.3242 0.003907-8.4727-1.7148-11.531-4.7734s-4.7773-7.2031-4.7773-11.527c0-4.3281 1.7188-8.4766 4.7773-11.535 3.0586-3.0625 7.207-4.7773 11.535-4.7773zm10.027 6.2812c-4.0547-4.0547-10.156-5.2695-15.453-3.0742-5.3008 2.1953-8.7539 7.3633-8.7539 13.102 0 5.7344 3.4531 10.906 8.7539 13.098 5.2969 2.1953 11.398 0.98438 15.453-3.0703 2.6602-2.6602 4.1523-6.2695 4.1523-10.027 0-3.7617-1.4922-7.3711-4.1523-10.027zm-17.152 11.008c-0.375-0.59766-0.375-1.3555 0-1.957l5.5156-9.0312c0.34375-0.5625 0.94922-0.90234 1.6055-0.90234s1.2656 0.33984 1.6055 0.90234l5.5195 9.0352c0.375 0.59766 0.375 1.3594 0 1.957l-5.5156 9.0312c-0.33984 0.5625-0.94922 0.90234-1.6055 0.90234s-1.2656-0.33984-1.6055-0.90234zm6.9922-9.332-5.0508 8.2773h-0.003907c-0.027343 0.046875-0.027343 0.10938 0 0.15625l5.0508 8.2773h0.003907c0.058593 0.097656 0.20312 0.097656 0.26172 0l5.0508-8.2773c0.03125-0.046875 0.03125-0.10938 0-0.15625l-5.0508-8.2773c-0.0625-0.09375-0.20313-0.09375-0.26172 0zm-18.41 19.012c-1.6758-2.9102-2.6406-6.1758-2.8086-9.5312-0.003907-0.082031-0.074219-0.14453-0.15625-0.14453h-21.379c-0.082031 0.003906-0.14844 0.070312-0.14844 0.15234v9.6016c0 0.082032 0.066406 0.14844 0.14844 0.14844h24.211c0.11719 0 0.19141-0.125 0.13281-0.22656zm32.156-24.27c-3.6133-3.6094-8.5078-5.6406-13.613-5.6406-5.1094 0-10.004 2.0312-13.617 5.6406-3.6094 3.6094-5.6367 8.5078-5.6367 13.613s2.0273 10.004 5.6367 13.613c3.6133 3.6133 8.5078 5.6406 13.617 5.6406 5.1055 0 10-2.0273 13.613-5.6406 3.6094-3.6094 5.6367-8.5078 5.6367-13.613s-2.0273-10.004-5.6367-13.613z"/>
<text fill="#000000" font-family="Arbeit Regular, Helvetica, Arial-Unicode, Arial, Sans-serif" font-weight="bold" font-size="5.0" y="117.5" x="0.0">Created by HRF07</text><text fill="#000000" font-family="Arbeit Regular, Helvetica, Arial-Unicode, Arial, Sans-serif" font-weight="bold" font-size="5.0" y="122.5" x="0.0">from Noun Project</text></svg>