<svg xmlns="http://www.w3.org/2000/svg" version="1.1" viewBox="-0.20720720720720312 0 109.06306306306305 108.86400000000002" width="109.06306306306305" height="108.86400000000002">
 <path d="m24.113 13.098c0.85547 0 1.5508-0.69531 1.5508-1.5508s-0.69531-1.5508-1.5508-1.5508c-7.7812 0-14.113 6.332-14.113 14.113v51.773c0 7.7812 6.332 14.113 14.113 14.113h51.773c7.7812 0 14.113-6.332 14.113-14.113 0-0.85547-0.69531-1.5508-1.5508-1.5508s-1.5508 0.69531-1.5508 1.5508c0 6.0742-4.9414 11.016-11.016 11.016l-51.77 0.003906c-6.0742 0-11.012-4.9414-11.012-11.016l-0.003906-51.773c0-6.0742 4.9414-11.016 11.012-11.016z"></path>
 <path d="m71.789 18.363 2.8594-2.8633 9.9648 9.9648-2.8594 2.8633z"></path>
 <path d="m87.473 22.609c2.7461-2.7461 2.7461-7.2188 0-9.9648-2.7461-2.7461-7.2188-2.7461-9.9648 0l-0.66406 0.66406 9.9648 9.9648z"></path>
 <path d="m34.801 55.355 34.797-34.801 9.9648 9.9648-34.797 34.801z"></path>
 <path d="m29.059 70.859 12.809-4.0547-8.5859-8.5859z"></path>
<text x="0.0" y="117.5" font-size="5.0" font-weight="bold" font-family="Arbeit Regular, Helvetica, Arial-Unicode, Arial, Sans-serif" fill="#000000">Created by Kosong Tujuh</text><text x="0.0" y="122.5" font-size="5.0" font-weight="bold" font-family="Arbeit Regular, Helvetica, Arial-Unicode, Arial, Sans-serif" fill="#000000">from Noun Project</text></svg>