<svg viewBox="-5 -4.87 111.0810810810811 110.42999999999999" version="1.1" xmlns="http://www.w3.org/2000/svg" style="max-height: 500px" width="111.0810810810811" height="110.42999999999999">
 <path fill-rule="evenodd" d="m11.047 1.1992h9.125c2.7656 0 5.2773 1.1328 7.0977 2.9492 1.8203 1.8203 2.9492 4.332 2.9492 7.0977v9.125c0 2.7656-1.1289 5.2773-2.9492 7.0977-1.8203 1.8203-4.332 2.9492-7.0977 2.9492h-9.125c-2.7656 0-5.2773-1.1328-7.0977-2.9492-1.8164-1.8164-2.9492-4.332-2.9492-7.0977v-9.125c0-2.7656 1.1328-5.2773 2.9492-7.0977 1.8203-1.8164 4.332-2.9492 7.0977-2.9492zm68.781 68.383h9.125c2.7656 0 5.2773 1.1328 7.0977 2.9492 1.8164 1.8203 2.9492 4.332 2.9492 7.0977v9.125c0 2.7656-1.1328 5.2773-2.9492 7.0977-1.8203 1.8164-4.332 2.9492-7.0977 2.9492h-9.125c-2.7656 0-5.2773-1.1328-7.0977-2.9492-1.8203-1.8203-2.9492-4.332-2.9492-7.0977v-9.125c0-2.7656 1.1289-5.2773 2.9492-7.0977 1.8203-1.8203 4.332-2.9492 7.0977-2.9492zm-34.391 0h9.125c2.7656 0 5.2773 1.1328 7.0977 2.9492 1.8164 1.8203 2.9492 4.332 2.9492 7.0977v9.125c0 2.7656-1.1328 5.2773-2.9492 7.0977-1.8203 1.8164-4.332 2.9492-7.0977 2.9492h-9.125c-2.7656 0-5.2773-1.1328-7.0977-2.9492-1.8164-1.8203-2.9492-4.332-2.9492-7.0977v-9.125c0-2.7656 1.1328-5.2773 2.9492-7.0977 1.8203-1.8203 4.332-2.9492 7.0977-2.9492zm9.125 4.5938h-9.125c-1.4961 0-2.8633 0.61328-3.8477 1.6055-0.98828 0.98828-1.6055 2.3516-1.6055 3.8477v9.125c0 1.4961 0.61328 2.8633 1.6055 3.8477 0.98828 0.98828 2.3516 1.6016 3.8477 1.6016h9.125c1.4961 0 2.8594-0.61328 3.8477-1.6016 0.98828-0.98828 1.6055-2.3516 1.6055-3.8477v-9.125c0-1.4961-0.61328-2.8633-1.6055-3.8477-0.98828-0.98828-2.3516-1.6055-3.8477-1.6055zm-43.516-4.5938h9.125c2.7656 0 5.2773 1.1328 7.0977 2.9492 1.8203 1.8203 2.9492 4.332 2.9492 7.0977v9.125c0 2.7656-1.1289 5.2773-2.9492 7.0977-1.8203 1.8164-4.332 2.9492-7.0977 2.9492h-9.125c-2.7656 0-5.2773-1.1328-7.0977-2.9492-1.8164-1.8203-2.9492-4.332-2.9492-7.0977v-9.125c0-2.7656 1.1328-5.2773 2.9492-7.0977 1.8164-1.8203 4.332-2.9492 7.0977-2.9492zm68.781-34.191h9.125c2.7656 0 5.2773 1.1328 7.0977 2.9492 1.8164 1.8203 2.9492 4.332 2.9492 7.0977v9.125c0 2.7656-1.1328 5.2773-2.9492 7.0977-1.8203 1.8164-4.332 2.9492-7.0977 2.9492h-9.125c-2.7656 0-5.2773-1.1328-7.0977-2.9492-1.8203-1.8203-2.9492-4.332-2.9492-7.0977v-9.125c0-2.7656 1.1289-5.2773 2.9492-7.0977 1.8203-1.8164 4.332-2.9492 7.0977-2.9492zm9.125 4.5938h-9.125c-1.4961 0-2.8633 0.61328-3.8477 1.6055-0.98828 0.98828-1.6055 2.3516-1.6055 3.8477v9.125c0 1.4961 0.61328 2.8594 1.6055 3.8477 0.98828 0.98828 2.3516 1.6055 3.8477 1.6055h9.125c1.4961 0 2.8633-0.61328 3.8477-1.6055 0.98828-0.98828 1.6016-2.3516 1.6016-3.8477v-9.125c0-1.4961-0.61328-2.8633-1.6016-3.8477-0.98828-0.98828-2.3516-1.6055-3.8477-1.6055zm-43.516-4.5938h9.125c2.7656 0 5.2773 1.1328 7.0977 2.9492 1.8164 1.8203 2.9492 4.332 2.9492 7.0977v9.125c0 2.7656-1.1328 5.2773-2.9492 7.0977-1.8203 1.8164-4.332 2.9492-7.0977 2.9492h-9.125c-2.7656 0-5.2773-1.1328-7.0977-2.9492-1.8164-1.8203-2.9492-4.332-2.9492-7.0977v-9.125c0-2.7656 1.1328-5.2773 2.9492-7.0977 1.8203-1.8164 4.332-2.9492 7.0977-2.9492zm-34.391 0h9.125c2.7656 0 5.2773 1.1328 7.0977 2.9492 1.8203 1.8203 2.9492 4.332 2.9492 7.0977v9.125c0 2.7656-1.1289 5.2773-2.9492 7.0977-1.8203 1.8164-4.332 2.9492-7.0977 2.9492h-9.125c-2.7656 0-5.2773-1.1328-7.0977-2.9492-1.8164-1.8203-2.9492-4.332-2.9492-7.0977v-9.125c0-2.7656 1.1328-5.2773 2.9492-7.0977 1.8203-1.8164 4.332-2.9492 7.0977-2.9492zm9.125 4.5938h-9.125c-1.4961 0-2.8633 0.61328-3.8477 1.6055-0.98828 0.98828-1.6016 2.3516-1.6016 3.8477v9.125c0 1.4961 0.61328 2.8594 1.6016 3.8477 0.98828 0.98828 2.3516 1.6055 3.8477 1.6055h9.125c1.4961 0 2.8633-0.61328 3.8477-1.6055 0.98828-0.98828 1.6055-2.3516 1.6055-3.8477v-9.125c0-1.4961-0.61328-2.8633-1.6055-3.8477-0.98828-0.98828-2.3516-1.6055-3.8477-1.6055zm59.66-38.785h9.125c2.7656 0 5.2773 1.1328 7.0977 2.9492 1.8164 1.8203 2.9492 4.332 2.9492 7.0977v9.125c0 2.7656-1.1328 5.2773-2.9492 7.0977-1.8203 1.8203-4.332 2.9492-7.0977 2.9492h-9.125c-2.7656 0-5.2773-1.1328-7.0977-2.9492s-2.9492-4.332-2.9492-7.0977v-9.125c0-2.7656 1.1289-5.2773 2.9492-7.0977 1.8203-1.8164 4.332-2.9492 7.0977-2.9492zm9.125 4.5938h-9.125c-1.4961 0-2.8633 0.61328-3.8477 1.6016-0.98828 0.98828-1.6055 2.3516-1.6055 3.8477v9.125c0 1.4961 0.61328 2.8633 1.6055 3.8477 0.98828 0.98828 2.3516 1.6055 3.8477 1.6055h9.125c1.4961 0 2.8633-0.61328 3.8477-1.6016 0.98828-0.98828 1.6016-2.3516 1.6016-3.8477v-9.125c0-1.4961-0.61328-2.8633-1.6016-3.8477-0.98828-0.98828-2.3516-1.6016-3.8477-1.6016zm-43.516-4.5938h9.125c2.7656 0 5.2773 1.1328 7.0977 2.9492 1.8164 1.8203 2.9492 4.332 2.9492 7.0977v9.125c0 2.7656-1.1328 5.2773-2.9492 7.0977-1.8203 1.8203-4.332 2.9492-7.0977 2.9492h-9.125c-2.7656 0-5.2773-1.1328-7.0977-2.9492-1.8164-1.8164-2.9492-4.332-2.9492-7.0977v-9.125c0-2.7656 1.1328-5.2773 2.9492-7.0977 1.8203-1.8164 4.332-2.9492 7.0977-2.9492zm-25.266 4.5938h-9.125c-1.4961 0-2.8633 0.61328-3.8477 1.6016-0.98828 0.98828-1.6016 2.3516-1.6016 3.8477v9.125c0 1.4961 0.61328 2.8633 1.6016 3.8477 0.98828 0.98828 2.3516 1.6055 3.8477 1.6055h9.125c1.4961 0 2.8633-0.61328 3.8477-1.6016 0.98828-0.98828 1.6055-2.3516 1.6055-3.8477v-9.125c0-1.4961-0.61328-2.8633-1.6055-3.8477-0.98828-0.98828-2.3516-1.6016-3.8477-1.6016z"/>
<text fill="#000000" font-family="Arbeit Regular, Helvetica, Arial-Unicode, Arial, Sans-serif" font-weight="bold" font-size="5.0" y="117.5" x="0.0">Created by VERA</text><text fill="#000000" font-family="Arbeit Regular, Helvetica, Arial-Unicode, Arial, Sans-serif" font-weight="bold" font-size="5.0" y="122.5" x="0.0">from Noun Project</text></svg>