<svg viewBox="-2.2972972972972974 -1.0899999999999999 102.97297297297298 103.14" version="1.1" xmlns="http://www.w3.org/2000/svg" style="max-height: 500px" width="102.97297297297298" height="103.14">
 <g>
  <path d="m52.129 30.531h16.27c0.58984 0 1.0703 0.48047 1.0703 1.0703v16.27c0 0.58984-0.48047 1.0703-1.0703 1.0703h-16.27c-0.58984 0-1.0703-0.48047-1.0703-1.0703v-16.27c0-0.58984 0.48047-1.0703 1.0703-1.0703z"/>
  <path d="m11.07 51.07h16.262c0.58984 0 1.0703 0.58984 1.0703 1.0703v16.262c0 0.58984-0.48047 1.0703-1.0703 1.0703h-16.262c-0.58984 0-1.0703-0.58984-1.0703-1.0703v-16.262c0-0.58984 0.48047-1.0703 1.0703-1.0703z"/>
  <path d="m52.129 51.07h16.27c0.58984 0 1.0703 0.48047 1.0703 1.0703v16.27c0 0.58984-0.48047 1.0703-1.0703 1.0703h-16.27c-0.58984 0-1.0703-0.48047-1.0703-1.0703v-16.27c0-0.58984 0.48047-1.0703 1.0703-1.0703z"/>
  <path d="m31.602 30.531h16.262c0.58984 0 1.0703 0.58984 1.0703 1.0703v16.262c0 0.58984-0.48047 1.0703-1.0703 1.0703h-16.262c-0.58984 0-1.0703-0.58984-1.0703-1.0703v-16.262c0-0.58984 0.48047-1.0703 1.0703-1.0703z"/>
  <path d="m11.07 30.531h16.262c0.58984 0 1.0703 0.58984 1.0703 1.0703v16.262c0 0.58984-0.48047 1.0703-1.0703 1.0703h-16.262c-0.58984 0-1.0703-0.58984-1.0703-1.0703v-16.262c0-0.58984 0.48047-1.0703 1.0703-1.0703z"/>
  <path d="m72.672 10h16.262c0.58984 0 1.0703 0.58984 1.0703 1.0703v16.262c0 0.58984-0.48047 1.0703-1.0703 1.0703h-16.262c-0.58984 0-1.0703-0.58984-1.0703-1.0703v-16.262c0-0.58984 0.48047-1.0703 1.0703-1.0703z"/>
  <path d="m72.672 30.531h16.262c0.58984 0 1.0703 0.58984 1.0703 1.0703v16.262c0 0.58984-0.48047 1.0703-1.0703 1.0703h-16.262c-0.58984 0-1.0703-0.58984-1.0703-1.0703v-16.262c0-0.58984 0.48047-1.0703 1.0703-1.0703z"/>
  <path d="m72.672 51.07h16.262c0.58984 0 1.0703 0.58984 1.0703 1.0703v16.262c0 0.58984-0.48047 1.0703-1.0703 1.0703h-16.262c-0.58984 0-1.0703-0.58984-1.0703-1.0703v-16.262c0-0.58984 0.48047-1.0703 1.0703-1.0703z"/>
  <path d="m31.602 51.07h16.262c0.58984 0 1.0703 0.58984 1.0703 1.0703v16.262c0 0.58984-0.48047 1.0703-1.0703 1.0703h-16.262c-0.58984 0-1.0703-0.58984-1.0703-1.0703v-16.262c0-0.58984 0.48047-1.0703 1.0703-1.0703z"/>
  <path d="m72.672 71.602h16.262c0.58984 0 1.0703 0.58984 1.0703 1.0703v16.262c0 0.58984-0.48047 1.0703-1.0703 1.0703h-16.262c-0.58984 0-1.0703-0.58984-1.0703-1.0703v-16.262c0-0.58984 0.48047-1.0703 1.0703-1.0703z"/>
  <path d="m52.129 10h16.27c0.58984 0 1.0703 0.48047 1.0703 1.0703v16.27c0 0.58984-0.48047 1.0703-1.0703 1.0703h-16.27c-0.58984 0-1.0703-0.48047-1.0703-1.0703v-16.27c0-0.58984 0.48047-1.0703 1.0703-1.0703z"/>
  <path d="m31.602 71.602h16.262c0.58984 0 1.0703 0.58984 1.0703 1.0703v16.262c0 0.58984-0.48047 1.0703-1.0703 1.0703h-16.262c-0.58984 0-1.0703-0.58984-1.0703-1.0703v-16.262c0-0.58984 0.48047-1.0703 1.0703-1.0703z"/>
  <path d="m52.129 71.602h16.27c0.58984 0 1.0703 0.48047 1.0703 1.0703v16.27c0 0.58984-0.48047 1.0703-1.0703 1.0703h-16.27c-0.58984 0-1.0703-0.48047-1.0703-1.0703v-16.27c0-0.58984 0.48047-1.0703 1.0703-1.0703z"/>
  <path d="m11.07 71.602h16.262c0.58984 0 1.0703 0.58984 1.0703 1.0703v16.262c0 0.58984-0.48047 1.0703-1.0703 1.0703h-16.262c-0.58984 0-1.0703-0.58984-1.0703-1.0703v-16.262c0-0.58984 0.48047-1.0703 1.0703-1.0703z"/>
  <path d="m31.602 10h16.262c0.58984 0 1.0703 0.58984 1.0703 1.0703v16.262c0 0.58984-0.48047 1.0703-1.0703 1.0703h-16.262c-0.58984 0-1.0703-0.58984-1.0703-1.0703v-16.262c0-0.58984 0.48047-1.0703 1.0703-1.0703z"/>
  <path d="m11.07 10h16.262c0.58984 0 1.0703 0.58984 1.0703 1.0703v16.262c0 0.58984-0.48047 1.0703-1.0703 1.0703h-16.262c-0.58984 0-1.0703-0.58984-1.0703-1.0703v-16.262c0-0.58984 0.48047-1.0703 1.0703-1.0703z"/>
 </g>
<text fill="#000000" font-family="Arbeit Regular, Helvetica, Arial-Unicode, Arial, Sans-serif" font-weight="bold" font-size="5.0" y="117.5" x="0.0">Created by Kosong Tujuh</text><text fill="#000000" font-family="Arbeit Regular, Helvetica, Arial-Unicode, Arial, Sans-serif" font-weight="bold" font-size="5.0" y="122.5" x="0.0">from Noun Project</text></svg>