<svg xmlns="http://www.w3.org/2000/svg" viewBox="-4.204800000000005 0 73.3696 66.59200000000001" x="0px" y="0px" width="73.3696" height="66.59200000000001"><defs><style>
      .cls-1 {
        stroke-width: 0px;
      }
    </style></defs><path class="cls-1" d="m46.72021,32.75977h-29.44043c-3.64404,0-7.06348,1.41846-9.62549,3.9917-2.57568,2.56445-3.99414,5.98389-3.99414,9.62842,0,7.51025,6.10986,13.62012,13.61963,13.62012h22.5c.55225,0,1-.44775,1-1s-.44775-1-1-1h-22.5c-6.40723,0-11.61963-5.21289-11.61963-11.62012,0-3.1084,1.20947-6.0249,3.4082-8.21436,2.18701-2.19629,5.10303-3.40576,8.21143-3.40576h29.44043c6.40723,0,11.61963,5.21289,11.61963,11.62012,0,3.10889-1.20947,6.02539-3.4082,8.21436-2.16895,2.17822-5.06592,3.3877-8.15771,3.40576-.55225.00342-.99756.45361-.99414,1.00586.00342.55029.4502.99414,1,.99414h.00586c3.62354-.021,7.01953-1.43945,9.56006-3.9917,2.57568-2.56396,3.99414-5.9834,3.99414-9.62842,0-7.51025-6.10986-13.62012-13.61963-13.62012Z"></path><path class="cls-1" d="m32,28.55029c6.76855,0,12.27539-5.50635,12.27539-12.2749s-5.50684-12.27539-12.27539-12.27539-12.27539,5.50684-12.27539,12.27539,5.50684,12.2749,12.27539,12.2749Zm0-22.55029c5.66602,0,10.27539,4.60938,10.27539,10.27539,0,5.66553-4.60938,10.2749-10.27539,10.2749s-10.27539-4.60938-10.27539-10.2749c0-5.66602,4.60938-10.27539,10.27539-10.27539Z"></path><text x="0" y="79" fill="#000000" font-size="5px" font-weight="bold" font-family="'Helvetica Neue', Helvetica, Arial-Unicode, Arial, Sans-serif">Created by Sentya Irma</text><text x="0" y="84" fill="#000000" font-size="5px" font-weight="bold" font-family="'Helvetica Neue', Helvetica, Arial-Unicode, Arial, Sans-serif">from the Noun Project</text></svg>