<svg xmlns="http://www.w3.org/2000/svg" viewBox="-3.0700000000000074 0 100.39000000000004 100.80000000000001" x="0px" y="0px" width="100.39000000000004" height="100.80000000000001"><title>corona 1</title><g data-name="Internet, network, signal, smartphone, wifi"><path d="M52.66,10.5H23.34A6.34,6.34,0,0,0,17,16.84V83.16a6.34,6.34,0,0,0,6.34,6.34H52.66A6.34,6.34,0,0,0,59,83.16V16.84A6.34,6.34,0,0,0,52.66,10.5ZM56,83.16a3.35,3.35,0,0,1-3.34,3.34H23.34A3.35,3.35,0,0,1,20,83.16V16.84a3.35,3.35,0,0,1,3.34-3.34H52.66A3.35,3.35,0,0,1,56,16.84Z"></path><path d="M41.5,77.5h-7a1.5,1.5,0,0,0,0,3h7a1.5,1.5,0,0,0,0-3Z"></path><path d="M67.5,27.5A1.5,1.5,0,0,0,66,29v8a1.5,1.5,0,0,0,3,0V29A1.5,1.5,0,0,0,67.5,27.5Z"></path><path d="M74.5,21.5A1.5,1.5,0,0,0,73,23V42a1.5,1.5,0,0,0,3,0V23A1.5,1.5,0,0,0,74.5,21.5Z"></path><path d="M81.5,16.5A1.5,1.5,0,0,0,80,18V46a1.5,1.5,0,0,0,3,0V18A1.5,1.5,0,0,0,81.5,16.5Z"></path></g><text x="0" y="115" fill="#000000" font-size="5px" font-weight="bold" font-family="'Helvetica Neue', Helvetica, Arial-Unicode, Arial, Sans-serif">Created by Manglayang studio</text><text x="0" y="120" fill="#000000" font-size="5px" font-weight="bold" font-family="'Helvetica Neue', Helvetica, Arial-Unicode, Arial, Sans-serif">from the Noun Project</text></svg>