<svg xmlns="http://www.w3.org/2000/svg" xmlns:xlink="http://www.w3.org/1999/xlink" version="1.1" x="0px" y="0px" viewBox="-2.8200000000000074 0 100.64000000000001 100.80000000000001" enable-background="new 0 0 100 100" xml:space="preserve" width="100.64000000000001" height="100.80000000000001"><g><path d="M56.263,90.507H26.031c-4.291,0-7.781-3.49-7.781-7.781V16.892c0-4.291,3.491-7.781,7.781-7.781h30.232   c4.291,0,7.781,3.49,7.781,7.781v10.917c0,0.552-0.448,1-1,1s-1-0.448-1-1V16.892c0-3.188-2.593-5.781-5.781-5.781H26.031   c-3.188,0-5.781,2.593-5.781,5.781v65.834c0,3.188,2.593,5.781,5.781,5.781h30.232c3.188,0,5.781-2.593,5.781-5.781v-9.167   c0-0.552,0.448-1,1-1s1,0.448,1,1v9.167C64.044,87.017,60.554,90.507,56.263,90.507z"></path></g><g><path d="M41.148,14.501c-2.382,0-4.32-1.938-4.32-4.319h2c0,1.279,1.041,2.319,2.32,2.319c1.279,0,2.319-1.041,2.319-2.319h2   C45.467,12.564,43.53,14.501,41.148,14.501z"></path></g><g><path d="M43.805,85.24H39.28c-0.552,0-1-0.448-1-1s0.448-1,1-1h4.525c0.552,0,1,0.448,1,1S44.357,85.24,43.805,85.24z"></path></g><g><path d="M63.392,68.167c-10.123,0-18.358-8.236-18.358-18.359S53.269,31.45,63.392,31.45S81.75,39.686,81.75,49.809   S73.515,68.167,63.392,68.167z M63.392,33.45c-9.02,0-16.358,7.338-16.358,16.358c0,9.021,7.338,16.359,16.358,16.359   S79.75,58.829,79.75,49.809C79.75,40.789,72.412,33.45,63.392,33.45z"></path></g><g><path d="M62.542,61.888c-0.121,0-0.242-0.021-0.359-0.066c-0.386-0.149-0.641-0.52-0.641-0.934v-9.247l-4.132,1.827   c-0.505,0.223-1.096-0.005-1.319-0.51c-0.223-0.505,0.005-1.096,0.51-1.319l4.083-1.805l-4.093-1.859   c-0.503-0.229-0.725-0.821-0.497-1.324s0.823-0.724,1.324-0.497l4.123,1.874v-9.297c0-0.416,0.257-0.788,0.646-0.935   c0.387-0.148,0.827-0.04,1.104,0.272l7.237,8.177c0.211,0.239,0.296,0.564,0.228,0.876c-0.068,0.312-0.281,0.572-0.573,0.701   l-4.608,2.037l4.618,2.098c0.291,0.132,0.5,0.395,0.565,0.707c0.065,0.312-0.023,0.637-0.236,0.874l-7.237,8.021   C63.091,61.772,62.819,61.888,62.542,61.888z M63.542,51.132v7.155l4.579-5.074L63.542,51.132z M63.542,41.368v7.202l4.582-2.025   L63.542,41.368z"></path></g><text x="0" y="115" fill="#000000" font-size="5px" font-weight="bold" font-family="'Helvetica Neue', Helvetica, Arial-Unicode, Arial, Sans-serif">Created by IconTrack</text><text x="0" y="120" fill="#000000" font-size="5px" font-weight="bold" font-family="'Helvetica Neue', Helvetica, Arial-Unicode, Arial, Sans-serif">from the Noun Project</text></svg>