<svg xmlns="http://www.w3.org/2000/svg" xmlns:xlink="http://www.w3.org/1999/xlink" version="1.1" x="0px" y="0px" viewBox="-0.8200000000000074 0 101.14000000000001 100.80000000000001" style="enable-background:new 0 0 100 100;" xml:space="preserve" width="101.14000000000001" height="100.80000000000001"><path d="M22.2,23.7c0-4.5-3.7-8.2-8.2-8.2c-4.5,0-8.2,3.7-8.2,8.2s3.7,8.2,8.2,8.2C18.5,31.8,22.2,28.2,22.2,23.7z M8.4,23.7  c0-3.1,2.5-5.7,5.7-5.7s5.7,2.5,5.7,5.7s-2.5,5.7-5.7,5.7S8.4,26.8,8.4,23.7z"></path><polygon points="50.6,82.2 50.6,55.3 75.1,55.3 75.1,52.8 23.6,52.8 23.6,55.3 48.1,55.3 48.1,82.2 "></polygon><path d="M16,63.7c0.1,0.6,0.6,1,1.2,1h12.2l7.7,19l2.3-0.9l-8-19.8c-0.2-0.5-0.6-0.8-1.2-0.8h-12l-4.7-21.4l7.8,6  c0.2,0.2,0.5,0.3,0.8,0.3h11.5v-2.5H22.5l-10.2-7.9c-0.4-0.3-1-0.3-1.4-0.1c-0.4,0.3-0.7,0.8-0.6,1.3L16,63.7z"></path><path d="M94.1,23.7c0-4.5-3.7-8.2-8.2-8.2c-4.5,0-8.2,3.7-8.2,8.2s3.7,8.2,8.2,8.2C90.5,31.8,94.1,28.2,94.1,23.7z M86,29.3  c-3.1,0-5.7-2.5-5.7-5.7S82.8,18,86,18s5.7,2.5,5.7,5.7S89.1,29.3,86,29.3z"></path><path d="M70.7,64.7h12.2c0.6,0,1.1-0.4,1.2-1L89.8,38c0.1-0.5-0.1-1-0.6-1.3c-0.4-0.3-1-0.3-1.4,0.1l-10.2,7.9H66.5v2.5h11.5  c0.3,0,0.5-0.1,0.8-0.3l7.8-6l-4.7,21.4h-12c-0.5,0-1,0.3-1.2,0.8l-8,19.8l2.3,0.9L70.7,64.7z"></path><text x="0" y="115" fill="#000000" font-size="5px" font-weight="bold" font-family="'Helvetica Neue', Helvetica, Arial-Unicode, Arial, Sans-serif">Created by Nubaia Karim Barsha</text><text x="0" y="120" fill="#000000" font-size="5px" font-weight="bold" font-family="'Helvetica Neue', Helvetica, Arial-Unicode, Arial, Sans-serif">from the Noun Project</text></svg>