<svg xml:space="preserve" style="max-height: 500px" viewBox="0 0 105.5 104.5" y="0px" x="0px" version="1.1" xmlns:xlink="http://www.w3.org/1999/xlink" xmlns="http://www.w3.org/2000/svg" width="105.5" height="104.5"><style type="text/css">
	.st0{fill-rule:evenodd;clip-rule:evenodd;}
</style><path d="M50,12.737c13.908,0,20.919,16.895,11.075,26.738c-9.844,9.844-26.738,2.832-26.738-11.075  C34.337,19.75,41.35,12.737,50,12.737L50,12.737z M13.97,85.388C15.683,66.89,31.265,52.594,50,52.594  c18.739,0,34.339,14.323,36.03,32.795c0.251,2.741,4.41,2.357,4.159-0.377c-1.89-20.64-19.295-36.61-40.189-36.61  c-20.894,0-38.299,15.969-40.189,36.61C9.56,87.747,13.722,88.128,13.97,85.388L13.97,85.388z M58.111,20.289  c-7.209-7.209-19.582-2.075-19.582,8.111c0,10.186,12.374,15.32,19.582,8.111C62.591,32.032,62.591,24.768,58.111,20.289z" class="st0"/><text font-family="'Helvetica Neue', Helvetica, Arial-Unicode, Arial, Sans-serif" font-weight="bold" font-size="5px" fill="#000000" y="115" x="0">Created by Sri Utami</text><text font-family="'Helvetica Neue', Helvetica, Arial-Unicode, Arial, Sans-serif" font-weight="bold" font-size="5px" fill="#000000" y="120" x="0">from the Noun Project</text></svg>