<svg xml:space="preserve" style="max-height: 500px" viewBox="0 16.16 62.56 32.64" y="0px" x="0px" version="1.1" xmlns:xlink="http://www.w3.org/1999/xlink" xmlns="http://www.w3.org/2000/svg" width="62.56" height="32.64"><g><path d="M20.0140839,42.5c-2.8775749,0-5.5800972-0.854332-8.0440207-2.5514946   c-0.1019144-0.0701408-0.1690578-0.1770744-0.1870432-0.2955093l-1.5263138-10.146759   c-0.0107908-0.0741653-0.0023975-0.1494808,0.0251789-0.2190456c1.3920269-3.5426559,3.496254-5.7331009,6.2551289-6.5115414   c1.3992214-0.4173927,2.5790272-0.3886471,3.4938564,0.0896873c0.7014084,0.3662224,1.2169743,0.9819622,1.5383034,1.8328438   c5.660429-0.6818542,8.9924221,1.58218,9.9048519,6.7288628c0.65345,3.2017288,0.2565842,5.7497749-1.1810036,7.5624962   c-1.5706768,1.9788742-4.2923832,3.0850182-8.3233852,3.3822517C21.3101921,42.4574547,20.6579418,42.5,20.0140839,42.5z    M12.6666756,39.3390923c2.8116312,1.8874588,5.8222942,2.5940361,9.2070408,2.1547966   c3.7264595-0.2753868,6.304287-1.2970161,7.6867237-3.0390244c1.2709274-1.6034508,1.6102428-3.9140549,1.0071507-6.8685684   c-0.8584766-4.840826-3.7972012-6.7351856-9.2526035-5.963644c-0.2397976,0.03162-0.4484215-0.1052094-0.5107689-0.3185043   c-0.2338028-0.8048878-0.6414604-1.3648605-1.213377-1.6632442c-0.6894188-0.3593254-1.6258297-0.3673744-2.7876511-0.0201225   c-2.4459391,0.6904793-4.3343477,2.665329-5.6184654,5.8722324L12.6666756,39.3390923z"/><path d="M17.2911777,28.2132416c-0.0827293,0-0.1654606-0.0206966-0.2409954-0.0649662   c-0.2158184-0.1276321-0.2841606-0.3995686-0.1510735-0.6071148c1.1306477-1.7696037,2.5286694-2.6831512,4.2767963-2.7941113   c0.2541847-0.0224209,0.4724007,0.1684513,0.4891872,0.411068c0.0167866,0.2431908-0.1750526,0.4536114-0.4292374,0.4697094   c-1.4471817,0.0919876-2.5754299,0.846283-3.5526066,2.3744183C17.59692,28.1385021,17.4458485,28.2132416,17.2911777,28.2132416z"/><path d="M7.8623242,40.2865601c-0.1510725,0-0.2829614-0.1063614-0.304543-0.2541161l-1.4255986-9.8391781   c-0.0107913-0.0776138,0.0107908-0.1563797,0.0611482-0.2190456c0.0491586-0.0626659,0.1234961-0.1034851,0.2050271-0.1132584   l4.2755971-0.5208778c0.183445-0.0212727,0.3177319,0.0914116,0.341712,0.2483654l1.5263138,9.7920361   c0.0119896,0.0781898-0.0083933,0.1575279-0.0575514,0.220192c-0.049159,0.0632439-0.1234961,0.1046371-0.2050276,0.1149864   L7.90309,40.2836838C7.8899012,40.285984,7.8755131,40.2865601,7.8623242,40.2865601z M6.7832336,30.407711l1.3404703,9.253334   l3.7648277-0.4886818l-1.4351912-9.2119408L6.7832336,30.407711z M8.5301619,37.4935989   c-0.1510725,0-0.2829618-0.1063614-0.3045435-0.25354L7.335968,31.1384335   c-0.0107908-0.0776138,0.0107908-0.1563778,0.0599494-0.2190437c0.0503573-0.0626659,0.1234961-0.103487,0.2050271-0.1138344   l2.2696877-0.2857361c0.1630621-0.0183964,0.3213291,0.0914135,0.3441095,0.2512398l0.8896503,6.1016254   c0.0107908,0.0776138-0.0107908,0.1563797-0.0599489,0.2190437c-0.0503578,0.0626678-0.1234961,0.1034851-0.2050276,0.1138344   l-2.2696877,0.2857361C8.5565395,37.4930229,8.5433502,37.4935989,8.5301619,37.4935989z M7.9870191,31.3505783l0.804522,5.5186577   l1.6617994-0.2086983L9.648819,31.1418839L7.9870191,31.3505783z"/><path d="M6.4424739,30.5200329c-0.5073323,0.320118,0.4998026,8.5145741,1.2992439,9.0686779L6.4424739,30.5200329z"/><path d="M7.7412262,39.8829651c-0.0635462,0-0.1258936-0.0189743-0.1798482-0.0557671   c-0.8920484-0.6191902-1.5982533-6.935833-1.5598855-8.5910282c0.0131888-0.5915928,0.0851283-0.8434067,0.2721705-0.9624157   c0.0887256-0.0563431,0.1990323-0.0638161,0.2961507-0.0218468c0.0959191,0.0413933,0.1630626,0.1276321,0.1774502,0.2276688   l1.2985058,9.0687866c0.0167856,0.1167068-0.0407658,0.2322655-0.1462765,0.2926331   C7.8503346,39.8691673,7.7951808,39.8829651,7.7412262,39.8829651z"/><path d="M56.0988731,39.533989c-0.0131874,0-0.0275764-0.000576-0.0407639-0.0028763l-4.4842224-0.5846939   c-0.0815315-0.0103455-0.1558685-0.0517426-0.2050247-0.1149826c-0.04916-0.0626678-0.0695419-0.1420059-0.0575523-0.2196198   l1.564682-10.0909939c0.025177-0.1575279,0.1654587-0.2707863,0.341713-0.2489395l4.3799057,0.5363998   c0.0815315,0.0097733,0.1558685,0.0505943,0.2050285,0.1132603c0.0503578,0.0620899,0.0719414,0.1414299,0.0611496,0.2190437   l-1.4603691,10.139286C56.3818359,39.4270515,56.2499466,39.533989,56.0988731,39.533989z M51.9635582,38.4036942   l3.8727379,0.5047798l1.376442-9.5540161l-3.7744217-0.4622364L51.9635582,38.4036942z M55.4142532,36.6565132   c-0.0131912,0-0.0263786-0.0005722-0.0407677-0.0023003l-2.3248405-0.2949333   c-0.0803337-0.0103455-0.1534691-0.0511665-0.2038269-0.1138344c-0.04916-0.062088-0.0707397-0.1408539-0.0599518-0.2184677   l0.911232-6.287899c0.023983-0.1604023,0.1666603-0.2673378,0.3453102-0.2518139l2.3260384,0.2949333   c0.0803337,0.0103474,0.1534729,0.0511684,0.2038307,0.1138344c0.0491562,0.0620899,0.0707397,0.1408539,0.059948,0.2190437   l-0.9124298,6.2878971C55.6972122,36.5501556,55.5653229,36.6565132,55.4142532,36.6565132z M53.4359207,35.8142586   l1.7157516,0.2178917l0.8285027-5.7049294l-1.7169533-0.2178936L53.4359207,35.8142586z"/><path d="M57.5533028,29.4785995c0.5197334,0.3298931-0.5120201,8.7745857-1.3310051,9.3456116L57.5533028,29.4785995z"/><path d="M56.2223701,39.1183205c-0.0539551,0-0.109108-0.0137978-0.1570663-0.0419693   c-0.1055107-0.0603638-0.1642609-0.1753502-0.1474762-0.292057l1.3308792-9.3453236   c0.0143852-0.1006107,0.0815315-0.1868496,0.1774483-0.2282429c0.0971184-0.0419693,0.2098236-0.0333462,0.2961502,0.0224209   c0.1906395,0.1201591,0.2625809,0.3777237,0.2757683,0.9836884c0.0455627,1.9593258-0.7241898,8.2380276-1.5946541,8.8451405   C56.3494644,39.09935,56.2859192,39.1183205,56.2223701,39.1183205z M57.3230438,29.6631889v0.000576   C57.3230438,29.6631889,57.3230438,29.6631889,57.3230438,29.6631889z"/><path d="M47.0756378,21.9379749c-1.8269691-0.5615635-3.4162483-0.3509769-4.2671776,1.0763531   c1.5391731,0.5499229,3.378746,1.8485737,4.1796494,3.1706467c0.2252388,0.4563046-0.4380302,0.9242516-0.8634567,0.3861103   c-0.6757965-1.1933937-2.3400803-2.2814579-3.6915932-2.7260532c-2.9845581-1.0456467-10.1550446,1.0058193-10.0611572,6.6454258   c0.120697,7.2501926,2.277523,10.2255344,9.3102837,10.7520351c3.8042488,0.4913673,7.0703354-0.4328842,9.9359741-2.4218483   l1.5642242-10.4478302C51.8184242,24.898035,49.8037186,22.7101231,47.0756378,21.9379749z"/><path d="M43.684536,41.5220604c-0.6606407,0-1.3344765-0.0448418-2.0226936-0.1333809   c-6.8438339-0.5122528-9.3173485-3.3638573-9.4432449-10.8958817c-0.0455589-2.7452412,1.5694809-4.4297562,2.9327316-5.3594017   c2.4219589-1.6523209,5.6292534-2.0242939,7.3342171-1.4263763c1.3380737,0.4398136,3.0658188,1.5413589,3.7744217,2.7941093   c0.1546669,0.1937485,0.346508,0.1914482,0.4676056,0.1201591c0.113903-0.0666904,0.2014275-0.2115707,0.1210976-0.3731232   c-0.8273048-1.3648605-2.6869354-2.5934639-4.0945511-3.0959435c-0.0419655-0.0149479-0.0755348-0.0471439-0.0899239-0.0879631   c-0.0155869-0.0408192-0.0119896-0.0856628,0.0107918-0.1230316c0.8285027-1.3861332,2.3608093-1.7834015,4.4458542-1.1440907   c2.7205048,0.7709675,4.8079491,2.966011,6.2059708,6.5241909c0.0083923,0.022995,0.0119896,0.0482922,0.0083923,0.0724392   l-1.564682,10.447443c-0.0059967,0.039669-0.0287781,0.0753136-0.0623474,0.0983124   C49.2166748,40.6694565,46.5753021,41.5220604,43.684536,41.5220604z M40.6391029,23.7305908   c-1.6222343,0-3.6521225,0.5122547-5.309124,1.6425457c-1.3033028,0.8888264-2.8476028,2.4980278-2.8044395,5.1150627   c0.123497,7.4268131,2.4375458,10.1036434,9.1686745,10.6078472c3.6041641,0.4633865,6.8006706-0.3070068,9.7813568-2.3583221   l1.550293-10.3479824c-1.3620529-3.4472198-3.3787498-5.5703983-5.9937477-6.3103199   c-0.0011978-0.000576-0.0023994-0.0011501-0.0035973-0.0011501c-1.3009033-0.4001446-3.0286484-0.5639973-3.9938354,0.8623791   c1.4339943,0.5565224,3.2504616,1.7908764,4.0861588,3.1701088c0.1594658,0.3231049,0.0011978,0.6249371-0.2338028,0.7623425   c-0.2445946,0.1420059-0.6126862,0.1299324-0.8848572-0.212719c-0.6834221-1.2056065-2.3344307-2.2536869-3.6197472-2.6762524   C41.9076347,23.8174038,41.306942,23.7305908,40.6391029,23.7305908z"/></g><text font-family="'Helvetica Neue', Helvetica, Arial-Unicode, Arial, Sans-serif" font-weight="bold" font-size="5px" fill="#000000" y="79" x="0">Created by basith ibrahim</text><text font-family="'Helvetica Neue', Helvetica, Arial-Unicode, Arial, Sans-serif" font-weight="bold" font-size="5px" fill="#000000" y="84" x="0">from the Noun Project</text></svg>